<svg width="165" height="189" viewBox="0 0 165 189" fill="none" xmlns="http://www.w3.org/2000/svg">
<g filter="url(#filter0_d_1680_1437)">
<path d="M81.717 143.47C73.681 143.47 65.988 142.343 58.638 140.089C51.288 137.737 45.457 134.748 41.145 131.122L47.76 116.275C51.876 119.509 56.972 122.204 63.048 124.36C69.124 126.516 75.347 127.594 81.717 127.594C87.107 127.594 91.468 127.006 94.8 125.83C98.132 124.654 100.582 123.086 102.15 121.126C103.718 119.068 104.502 116.765 104.502 114.217C104.502 111.081 103.375 108.582 101.121 106.72C98.867 104.76 95.927 103.241 92.301 102.163C88.773 100.987 84.804 99.909 80.394 98.929C76.082 97.949 71.721 96.822 67.311 95.548C62.999 94.176 59.03 92.461 55.404 90.403C51.876 88.247 48.985 85.405 46.731 81.877C44.477 78.349 43.35 73.841 43.35 68.353C43.35 62.767 44.82 57.671 47.76 53.065C50.798 48.361 55.355 44.637 61.431 41.893C67.605 39.051 75.396 37.63 84.804 37.63C90.978 37.63 97.103 38.414 103.179 39.982C109.255 41.55 114.547 43.804 119.055 46.744L113.028 61.591C108.422 58.847 103.669 56.838 98.769 55.564C93.869 54.192 89.165 53.506 84.657 53.506C79.365 53.506 75.053 54.143 71.721 55.417C68.487 56.691 66.086 58.357 64.518 60.415C63.048 62.473 62.313 64.825 62.313 67.471C62.313 70.607 63.391 73.155 65.547 75.115C67.801 76.977 70.692 78.447 74.22 79.525C77.846 80.603 81.864 81.681 86.274 82.759C90.684 83.739 95.045 84.866 99.357 86.14C103.767 87.414 107.736 89.08 111.264 91.138C114.89 93.196 117.781 95.989 119.937 99.517C122.191 103.045 123.318 107.504 123.318 112.894C123.318 118.382 121.799 123.478 118.761 128.182C115.821 132.788 111.264 136.512 105.09 139.354C98.916 142.098 91.125 143.47 81.717 143.47Z" fill="white"/>
<path d="M58.638 140.089L57.5713 143.422L57.5915 143.429L57.6118 143.435L58.638 140.089ZM41.145 131.122L37.948 129.698L36.8755 132.105L38.8924 133.801L41.145 131.122ZM47.76 116.275L49.9224 113.523L46.3908 110.748L44.563 114.851L47.76 116.275ZM63.048 124.36L64.2184 121.062L63.048 124.36ZM94.8 125.83L93.6351 122.53H93.6351L94.8 125.83ZM102.15 121.126L104.883 123.312L104.909 123.28L104.934 123.247L102.15 121.126ZM101.121 106.72L98.8244 109.361L98.8578 109.39L98.8919 109.418L101.121 106.72ZM92.301 102.163L91.1942 105.483L91.2486 105.502L91.3036 105.518L92.301 102.163ZM80.394 98.929L79.6183 102.342L79.6265 102.344L79.6347 102.346L80.394 98.929ZM67.311 95.548L66.2498 98.8832L66.2945 98.8975L66.3396 98.9105L67.311 95.548ZM55.404 90.403L53.5789 93.3895L53.6272 93.419L53.6764 93.4469L55.404 90.403ZM46.731 81.877L43.7816 83.7614H43.7816L46.731 81.877ZM47.76 53.065L44.8199 51.1662L44.8148 51.174L44.8098 51.1819L47.76 53.065ZM61.431 41.893L62.8716 45.0828L62.883 45.0776L62.8945 45.0723L61.431 41.893ZM103.179 39.982L102.304 43.371V43.371L103.179 39.982ZM119.055 46.744L122.298 48.0605L123.383 45.388L120.967 43.8124L119.055 46.744ZM113.028 61.591L111.237 64.5978L114.738 66.6838L116.271 62.9075L113.028 61.591ZM98.769 55.564L97.8253 58.9344L97.8567 58.9432L97.8883 58.9514L98.769 55.564ZM71.721 55.417L70.471 52.1478L70.4546 52.1541L70.4382 52.1606L71.721 55.417ZM64.518 60.415L61.734 58.2938L61.7013 58.3368L61.6699 58.3807L64.518 60.415ZM65.547 75.115L63.1926 77.7048L63.254 77.7606L63.3179 77.8134L65.547 75.115ZM74.22 79.525L73.1972 82.8722L73.2099 82.8761L73.2226 82.8799L74.22 79.525ZM86.274 82.759L85.4429 86.1589L85.4787 86.1676L85.5147 86.1757L86.274 82.759ZM99.357 86.14L98.3653 89.4966L98.3754 89.4996L98.3856 89.5025L99.357 86.14ZM111.264 91.138L109.5 94.1612L109.518 94.1717L109.536 94.1819L111.264 91.138ZM119.937 99.517L116.951 101.342L116.969 101.372L116.988 101.401L119.937 99.517ZM118.761 128.182L115.821 126.283L115.816 126.291L115.811 126.299L118.761 128.182ZM105.09 139.354L106.511 142.552L106.533 142.543L106.554 142.533L105.09 139.354ZM81.717 139.97C74.013 139.97 66.6668 138.89 59.6642 136.743L57.6118 143.435C65.3092 145.796 73.349 146.97 81.717 146.97V139.97ZM59.7047 136.756C52.6386 134.494 47.2575 131.689 43.3976 128.443L38.8924 133.801C43.6565 137.807 49.9374 140.98 57.5713 143.422L59.7047 136.756ZM44.342 132.546L50.957 117.699L44.563 114.851L37.948 129.698L44.342 132.546ZM45.5976 119.027C50.0724 122.543 55.5232 125.404 61.8776 127.658L64.2184 121.062C58.4208 119.004 53.6796 116.475 49.9224 113.523L45.5976 119.027ZM61.8776 127.658C68.3247 129.946 74.9433 131.094 81.717 131.094V124.094C75.7507 124.094 69.9233 123.086 64.2184 121.062L61.8776 127.658ZM81.717 131.094C87.3176 131.094 92.1162 130.489 95.9649 129.13L93.6351 122.53C90.8198 123.523 86.8964 124.094 81.717 124.094V131.094ZM95.9649 129.13C99.6734 127.822 102.772 125.951 104.883 123.312L99.417 118.94C98.3915 120.221 96.5906 121.486 93.6351 122.53L95.9649 129.13ZM104.934 123.247C106.959 120.59 108.002 117.544 108.002 114.217H101.002C101.002 115.986 100.477 117.546 99.366 119.005L104.934 123.247ZM108.002 114.217C108.002 110.124 106.473 106.602 103.35 104.022L98.8919 109.418C100.277 110.562 101.002 112.038 101.002 114.217H108.002ZM103.418 104.079C100.7 101.716 97.2801 99.9919 93.2984 98.8081L91.3036 105.518C94.5739 106.49 97.0339 107.804 98.8244 109.361L103.418 104.079ZM93.4078 98.8426C89.7446 97.6215 85.6568 96.5131 81.1533 95.5123L79.6347 102.346C83.9512 103.305 87.8014 104.352 91.1942 105.483L93.4078 98.8426ZM81.1697 95.516C76.9258 94.5515 72.6301 93.4415 68.2824 92.1855L66.3396 98.9105C70.8119 100.202 75.2382 101.346 79.6183 102.342L81.1697 95.516ZM68.3722 92.2128C64.2724 90.9083 60.5291 89.2874 57.1316 87.3591L53.6764 93.4469C57.5309 95.6346 61.7256 97.4437 66.2498 98.8832L68.3722 92.2128ZM57.2291 87.4165C54.1606 85.5413 51.6519 83.0785 49.6804 79.9926L43.7816 83.7614C46.3181 87.7315 49.5914 90.9527 53.5789 93.3895L57.2291 87.4165ZM49.6804 79.9926C47.8819 77.1775 46.85 73.377 46.85 68.353H39.85C39.85 74.305 41.0721 79.5205 43.7816 83.7614L49.6804 79.9926ZM46.85 68.353C46.85 63.4186 48.1376 58.9786 50.7102 54.9481L44.8098 51.1819C41.5024 56.3634 39.85 62.1154 39.85 68.353H46.85ZM50.7001 54.9638C53.3082 50.9256 57.2906 47.6032 62.8716 45.0828L59.9904 38.7032C53.4194 41.6708 48.2878 45.7964 44.8199 51.1662L50.7001 54.9638ZM62.8945 45.0723C68.4687 42.5064 75.7191 41.13 84.804 41.13V34.13C75.0729 34.13 66.7413 35.5956 59.9675 38.7137L62.8945 45.0723ZM84.804 41.13C90.6781 41.13 96.5094 41.8755 102.304 43.371L104.054 36.593C97.6966 34.9525 91.2779 34.13 84.804 34.13V41.13ZM102.304 43.371C108.072 44.8593 113.002 46.9747 117.143 49.6756L120.967 43.8124C116.092 40.6333 110.438 38.2407 104.054 36.593L102.304 43.371ZM115.812 45.4275L109.785 60.2745L116.271 62.9075L122.298 48.0605L115.812 45.4275ZM114.819 58.5841C109.946 55.6809 104.888 53.5386 99.6497 52.1766L97.8883 58.9514C102.45 60.1374 106.898 62.0131 111.237 64.5978L114.819 58.5841ZM99.7127 52.1936C94.5443 50.7465 89.522 50.006 84.657 50.006V57.006C88.808 57.006 93.1937 57.6375 97.8253 58.9344L99.7127 52.1936ZM84.657 50.006C79.1248 50.006 74.3459 50.6663 70.471 52.1478L72.971 58.6862C75.7602 57.6197 79.6052 57.006 84.657 57.006V50.006ZM70.4382 52.1606C66.8073 53.5909 63.8006 55.5814 61.734 58.2938L67.302 62.5361C68.3714 61.1325 70.1667 59.7911 73.0038 58.6734L70.4382 52.1606ZM61.6699 58.3807C59.7555 61.0608 58.813 64.1314 58.813 67.471H65.813C65.813 65.5186 66.3405 63.8852 67.3661 62.4493L61.6699 58.3807ZM58.813 67.471C58.813 71.5087 60.2468 75.0267 63.1926 77.7048L67.9014 72.5252C66.5352 71.2833 65.813 69.7053 65.813 67.471H58.813ZM63.3179 77.8134C66.0072 80.0349 69.3395 81.6935 73.1972 82.8722L75.2428 76.1778C72.0445 75.2005 69.5948 73.9191 67.7761 72.4166L63.3179 77.8134ZM73.2226 82.8799C76.9132 83.9771 80.9877 85.0698 85.4429 86.1589L87.1051 79.3591C82.7403 78.2921 78.7788 77.2289 75.2174 76.1701L73.2226 82.8799ZM85.5147 86.1757C89.847 87.1384 94.1304 88.2454 98.3653 89.4966L100.349 82.7834C95.9596 81.4866 91.521 80.3396 87.0333 79.3423L85.5147 86.1757ZM98.3856 89.5025C102.552 90.7062 106.25 92.2652 109.5 94.1612L113.028 88.1148C109.222 85.8948 104.982 84.1218 100.328 82.7775L98.3856 89.5025ZM109.536 94.1819C112.651 95.9495 115.107 98.325 116.951 101.342L122.923 97.6919C120.455 93.653 117.129 90.4425 112.992 88.0941L109.536 94.1819ZM116.988 101.401C118.792 104.226 119.818 107.982 119.818 112.894H126.818C126.818 107.026 125.59 101.864 122.886 97.6326L116.988 101.401ZM119.818 112.894C119.818 117.694 118.501 122.133 115.821 126.283L121.701 130.081C125.097 124.823 126.818 119.07 126.818 112.894H119.818ZM115.811 126.299C113.311 130.216 109.339 133.545 103.627 136.175L106.554 142.533C113.189 139.479 118.331 135.36 121.711 130.065L115.811 126.299ZM103.669 136.156C98.0813 138.639 90.8149 139.97 81.717 139.97V146.97C91.4351 146.97 99.7507 145.557 106.511 142.552L103.669 136.156Z" fill="#036081"/>
</g>
<defs>
<filter id="filter0_d_1680_1437" x="0.144531" y="0.629883" width="164.174" height="187.84" filterUnits="userSpaceOnUse" color-interpolation-filters="sRGB">
<feFlood flood-opacity="0" result="BackgroundImageFix"/>
<feColorMatrix in="SourceAlpha" type="matrix" values="0 0 0 0 0 0 0 0 0 0 0 0 0 0 0 0 0 0 127 0" result="hardAlpha"/>
<feOffset dy="4"/>
<feGaussianBlur stdDeviation="20.5"/>
<feComposite in2="hardAlpha" operator="out"/>
<feColorMatrix type="matrix" values="0 0 0 0 1 0 0 0 0 0.4 0 0 0 0 0 0 0 0 1 0"/>
<feBlend mode="normal" in2="BackgroundImageFix" result="effect1_dropShadow_1680_1437"/>
<feBlend mode="normal" in="SourceGraphic" in2="effect1_dropShadow_1680_1437" result="shape"/>
</filter>
</defs>
</svg>
