<svg width="30" height="30" viewBox="0 0 30 30" fill="none" xmlns="http://www.w3.org/2000/svg">
<path d="M16.7437 12.3525L12.4499 12.8906L12.2962 13.6031L13.1399 13.7587C13.6912 13.89 13.7999 14.0888 13.6799 14.6381L12.2962 21.1406C11.9324 22.8225 12.493 23.6138 13.8112 23.6138C14.833 23.6138 16.0199 23.1413 16.558 22.4925L16.723 21.7125C16.348 22.0425 15.8005 22.1738 15.4368 22.1738C14.9212 22.1738 14.7337 21.8119 14.8668 21.1744L16.7437 12.3525ZM16.8749 8.4375C16.8749 8.93478 16.6774 9.41169 16.3257 9.76332C15.9741 10.115 15.4972 10.3125 14.9999 10.3125C14.5026 10.3125 14.0257 10.115 13.6741 9.76332C13.3225 9.41169 13.1249 8.93478 13.1249 8.4375C13.1249 7.94022 13.3225 7.46331 13.6741 7.11167C14.0257 6.76004 14.5026 6.5625 14.9999 6.5625C15.4972 6.5625 15.9741 6.76004 16.3257 7.11167C16.6774 7.46331 16.8749 7.94022 16.8749 8.4375Z" fill="#251545"/>
</svg>
