<svg width="24" height="25" viewBox="0 0 24 25" fill="none" xmlns="http://www.w3.org/2000/svg">
<path d="M6.75 8.5C6.55109 8.5 6.36032 8.57902 6.21967 8.71967C6.07902 8.86032 6 9.05109 6 9.25C6 9.44891 6.07902 9.63968 6.21967 9.78033C6.36032 9.92098 6.55109 10 6.75 10H11.25C11.4489 10 11.6397 9.92098 11.7803 9.78033C11.921 9.63968 12 9.44891 12 9.25C12 9.05109 11.921 8.86032 11.7803 8.71967C11.6397 8.57902 11.4489 8.5 11.25 8.5H6.75ZM6 12.25C6 12.0511 6.07902 11.8603 6.21967 11.7197C6.36032 11.579 6.55109 11.5 6.75 11.5H15.25C15.4489 11.5 15.6397 11.579 15.7803 11.7197C15.921 11.8603 16 12.0511 16 12.25C16 12.4489 15.921 12.6397 15.7803 12.7803C15.6397 12.921 15.4489 13 15.25 13H6.75C6.55109 13 6.36032 12.921 6.21967 12.7803C6.07902 12.6397 6 12.4489 6 12.25ZM6.75 14.5C6.55109 14.5 6.36032 14.579 6.21967 14.7197C6.07902 14.8603 6 15.0511 6 15.25C6 15.4489 6.07902 15.6397 6.21967 15.7803C6.36032 15.921 6.55109 16 6.75 16H13.25C13.4489 16 13.6397 15.921 13.7803 15.7803C13.921 15.6397 14 15.4489 14 15.25C14 15.0511 13.921 14.8603 13.7803 14.7197C13.6397 14.579 13.4489 14.5 13.25 14.5H6.75ZM4.75 4.5C4.02065 4.5 3.32118 4.78973 2.80546 5.30546C2.28973 5.82118 2 6.52065 2 7.25V17.75C2 18.1111 2.07113 18.4687 2.20933 18.8024C2.34753 19.136 2.5501 19.4392 2.80546 19.6945C3.06082 19.9499 3.36398 20.1525 3.69762 20.2907C4.03127 20.4289 4.38886 20.5 4.75 20.5H19.25C19.6111 20.5 19.9687 20.4289 20.3024 20.2907C20.636 20.1525 20.9392 19.9499 21.1945 19.6945C21.4499 19.4392 21.6525 19.136 21.7907 18.8024C21.9289 18.4687 22 18.1111 22 17.75V7.25C22 6.52065 21.7103 5.82118 21.1945 5.30546C20.6788 4.78973 19.9793 4.5 19.25 4.5H4.75ZM3.5 7.25C3.5 6.56 4.06 6 4.75 6H19.25C19.94 6 20.5 6.56 20.5 7.25V17.75C20.5 18.44 19.94 19 19.25 19H4.75C4.06 19 3.5 18.44 3.5 17.75V7.25Z" fill="#444444"/>
</svg>
